# xmcd
#
# Track frame offsets:
#	150
#	17845
#	35410
#	51145
#	67315
#	85530
#	105752
#	123152
#	141145
#	160327
#	175627
#	188455
#	214195
#
# Disc length: 4334 seconds
#
# Revision: 6
# Processed by: cddbd v1.5.1PL0 Copyright (c) Steve Scherf et al.
# Submitted via: dBpowerAMP V4.0
#
DISCID=a210ec0d
DTITLE=Reba McEntire - If You See Him
DYEAR=1998
DGENRE=Country
TTITLE0=If You See Him, If You See Her (With Brooks and Dunn)
TTITLE1=One Honest Heart
TTITLE2=I Wouldn't Know
TTITLE3=I'll Give You Something To Miss
TTITLE4=Invisible
TTITLE5=Up And Flying
TTITLE6=Forever Love
TTITLE7=Face To Face (With Linda Davis)
TTITLE8=Heart Hush
TTITLE9=Lonely Alone
TTITLE10=Wrong Night
TTITLE11=All This Time
TTITLE12=DATA
EXTD=
EXTT0=
EXTT1=
EXTT2=
EXTT3=
EXTT4=
EXTT5=
EXTT6=
EXTT7=
EXTT8=
EXTT9=
EXTT10=
EXTT11=
EXTT12=
PLAYORDER=
